<svg xmlns="http://www.w3.org/2000/svg" xmlns:xlink="http://www.w3.org/1999/xlink" width="2000" zoomAndPan="magnify" viewBox="0 0 1500 1499.999933" height="2000" preserveAspectRatio="xMidYMid meet" version="1.0"><defs><clipPath id="adff019897"><path d="M 750 0 C 335.785156 0 0 335.785156 0 750 C 0 1164.214844 335.785156 1500 750 1500 C 1164.214844 1500 1500 1164.214844 1500 750 C 1500 335.785156 1164.214844 0 750 0 Z M 750 0 " clip-rule="nonzero"/></clipPath><clipPath id="a2ee59f460"><path d="M 0 0 L 1500 0 L 1500 1500 L 0 1500 Z M 0 0 " clip-rule="nonzero"/></clipPath><clipPath id="d4a71813d3"><path d="M 750 0 C 335.785156 0 0 335.785156 0 750 C 0 1164.214844 335.785156 1500 750 1500 C 1164.214844 1500 1500 1164.214844 1500 750 C 1500 335.785156 1164.214844 0 750 0 Z M 750 0 " clip-rule="nonzero"/></clipPath><clipPath id="b897d4d6b7"><rect x="0" width="1500" y="0" height="1500"/></clipPath><clipPath id="45fb480b23"><path d="M 318.484375 318.484375 L 1181.734375 318.484375 L 1181.734375 1181.734375 L 318.484375 1181.734375 Z M 318.484375 318.484375 " clip-rule="nonzero"/></clipPath></defs><g clip-path="url(#adff019897)"><g transform="matrix(1, 0, 0, 1, 0, 0.000000000000112861)"><g clip-path="url(#b897d4d6b7)"><g clip-path="url(#a2ee59f460)"><g clip-path="url(#d4a71813d3)"><rect x="-330" width="2160" fill="#c54848" height="2159.999904" y="-329.999985" fill-opacity="1"/></g></g></g></g></g><g clip-path="url(#45fb480b23)"><path fill="#ffffff" d="M 749.996094 318.484375 C 647.914062 318.484375 565.0625 405.476562 565.0625 512.664062 C 565.953125 580.121094 600.761719 637.121094 636.980469 691.335938 C 596.605469 660.785156 551.734375 642.308594 503.417969 642.117188 C 401.335938 642.117188 318.484375 729.113281 318.484375 836.300781 C 318.484375 943.488281 401.335938 1030.480469 503.417969 1030.480469 C 586.113281 1029.097656 652.253906 971.234375 717.246094 922.601562 C 705.617188 1067.875 681.960938 1149.449219 544.511719 1181.511719 L 955.484375 1181.511719 C 818.039062 1149.441406 794.382812 1067.875 782.75 922.601562 C 846.992188 977.664062 914.363281 1024.378906 996.582031 1030.480469 C 1098.664062 1030.480469 1181.515625 943.488281 1181.515625 836.300781 C 1181.515625 729.113281 1098.664062 642.117188 996.582031 642.117188 C 947.023438 642.113281 904.21875 664.917969 863.015625 691.335938 C 904.015625 637.679688 931 579.78125 934.933594 512.664062 C 934.933594 405.476562 852.085938 318.484375 750 318.484375 Z M 749.996094 318.484375 " fill-opacity="1" fill-rule="nonzero"/></g></svg>